<svg xmlns="http://www.w3.org/2000/svg" version="1.1" xmlns:xlink="http://www.w3.org/1999/xlink" xmlns:svgjs="http://svgjs.dev/svgjs" width="1000" height="1000" viewBox="0 0 1000 1000"><rect width="1000" height="1000" fill="#636365"></rect><g transform="matrix(0.7,0,0,0.7,149.57605563665675,421.6006087877922)"><svg viewBox="0 0 396 89" data-background-color="#636365" preserveAspectRatio="xMidYMid meet" height="224" width="1000" xmlns="http://www.w3.org/2000/svg" xmlns:xlink="http://www.w3.org/1999/xlink"><g id="tight-bounds" transform="matrix(1,0,0,1,0.24008861730862918,-0.00025040575170010015)"><svg viewBox="0 0 395.52 89.00059595494491" height="89.00059595494491" width="395.52"><g><svg viewBox="0 0 395.52 89.00059595494491" height="89.00059595494491" width="395.52"><g><svg viewBox="0 0 395.52 89.00059595494491" height="89.00059595494491" width="395.52"><g id="textblocktransform"><svg viewBox="0 0 395.52 89.00059595494491" height="89.00059595494491" width="395.52" id="textblock"><g><svg viewBox="0 0 395.52 89.00059595494491" height="89.00059595494491" width="395.52"><path d="M394.594 19.089C392.735 9.851 387.435 7.282 387.435 7.282 371.165-2.233 350.86-0.182 332.619 1.185 300.414 1.241 268.339 3.273 236.208 4.363 168.767 4.529 100.749 1.795 33.643 8.539 27.339 10.608-6.54 8.945 1.121 20.271 3.129 24.983 10.456 30.212 10.232 34.535 11.236 35.293 12.631 33.556 13.226 34.646 15.309 37.584 18.711 36.198 21.501 37.935 17.614 42.573 20.403 46.434 23.062 50.48 18.377 51.534 12.371 51.035 9.675 54.527 9.396 57.058 7.89 56.578 6.235 56.467 5.026 56.393 2.59 56.67 2.999 57.465 4.394 60.181-1.594 61.751 2.162 64.412-0.422 67.294 3.948 69.788 3.353 72.911 3.278 73.539 3.687 74.075 4.338 74.223 7.22 75.017 3.018 76.569 3.464 78.251 33.029 89.743 65.104 81.798 95.394 87.082 103.259 83.387 97.346 88.394 100.489 87.618 102.943 86.713 104.728 90.463 107.499 88.339 107.927 87.729 107.276 86.288 108.8 86.565 109.6 86.713 110.307 86.676 110.418 85.826 110.586 84.551 109.117 85.346 108.726 84.68 112.947 81.318 111.906 89.318 115.866 88.985 115.68 88.006 114.528 86.602 116.889 86.787 119.232 85.382 119.306 84.218 121.389 87.378 121.463 88.062 121.835 88.542 122.43 88.875 128.938 85.438 135.409 90.094 142.233 88.542 146.417 86.842 150.433 89.466 154.672 88.819 156.16 88.302 157.666 87.378 159.098 88.93 176.632 89.263 195.319 87.877 211.943 88.985 256.364 86.916 303.835 89.835 350.674 87.101 361.719 86.048 373.192 84.551 383.958 83.35 383.958 83.35 392.679 80.061 392.679 65.28S394.538 52.347 394.817 40.577C395.096 28.808 396.398 28.327 394.538 19.089Z" opacity="1" fill="#ffffff" data-fill-palette-color="tertiary"></path><g transform="matrix(1,0,0,1,55.76832,26.230666666666668)"><svg width="283.98335999999995" viewBox="-2.049999952316284 -34.04999923706055 269.2799987792969 34.64999771118164" height="36.539262621611584" data-palette-color="#636365"><path d="M35.45-22.9L30.55-5.9Q30.35-5.25 30.35-4.6L30.35-4.6Q30.35-4.05 30.5-3.68 30.65-3.3 30.83-3.08 31-2.85 31.05-2.75L31.05-2.75Q31.55-2.25 31.55-1.75L31.55-1.75Q31.55-1.65 31.45-1.25L31.45-1.25Q31.25-0.55 30.58-0.28 29.9 0 28.5 0L28.5 0 16.65 0Q15.6 0 15.03-0.35 14.45-0.7 14.45-1.3L14.45-1.3Q14.45-1.6 14.6-1.95L14.6-1.95Q14.75-2.35 15.03-2.58 15.3-2.8 15.8-3.1L15.8-3.1Q16.6-3.55 17.1-4.1 17.6-4.65 17.95-5.9L17.95-5.9 19.25-10.2 11.45-10.2 10.1-7.35Q9.25-5.5 9.25-4.45L9.25-4.45Q9.25-3.85 9.45-3.48 9.65-3.1 10.05-2.7L10.05-2.7Q10.4-2.3 10.53-2.02 10.65-1.75 10.55-1.3L10.55-1.3Q10.35-0.55 9.73-0.28 9.1 0 7.75 0L7.75 0 0.3 0Q-0.85 0-1.45-0.43-2.05-0.85-2.05-1.55L-2.05-1.55Q-2.05-2.35-1.48-2.83-0.9-3.3 0.25-3.85L0.25-3.85Q1.75-4.6 2.65-5.33 3.55-6.05 4.2-7.35L4.2-7.35 13.1-25.8Q15.15-30.1 17.93-32.02 20.7-33.95 25.25-33.95L25.25-33.95Q30.35-33.95 33.15-31.88 35.95-29.8 35.95-26.1L35.95-26.1Q35.95-24.55 35.45-22.9L35.45-22.9ZM13.75-15.2L20.75-15.2 23.4-24Q23.6-24.6 23.6-25.25L23.6-25.25Q23.6-26.2 23.08-26.68 22.55-27.15 21.6-27.15L21.6-27.15Q20.4-27.15 19.55-26.45 18.7-25.75 17.85-23.95L17.85-23.95 13.75-15.2ZM73.35-33.3Q75.4-33.3 75.4-32L75.4-32Q75.4-31.65 75.35-31.5L75.35-31.5Q75.2-31 74.9-30.73 74.6-30.45 74.05-30.1L74.05-30.1Q73.3-29.65 72.8-29.1 72.3-28.55 71.95-27.4L71.95-27.4 65.75-5.2Q64.9-2.2 63.62-1 62.35 0.2 60.1 0.2L60.1 0.2Q58.1 0.2 56.77-0.98 55.45-2.15 54.3-4.6L54.3-4.6 46.75-20.5 42.55-5.9Q42.4-5.25 42.4-4.75L42.4-4.75Q42.4-4.1 42.62-3.68 42.85-3.25 43.25-2.8L43.25-2.8Q43.8-2.15 43.8-1.7L43.8-1.7Q43.8-1.4 43.75-1.25L43.75-1.25Q43.55-0.55 42.85-0.28 42.15 0 40.75 0L40.75 0 35.3 0Q33.25 0 33.25-1.3L33.25-1.3Q33.25-1.65 33.3-1.8L33.3-1.8Q33.45-2.3 33.75-2.58 34.05-2.85 34.6-3.2L34.6-3.2Q35.35-3.65 35.85-4.2 36.35-4.75 36.7-5.9L36.7-5.9 43.05-28.35 42.25-30Q41.75-31 41.75-31.75L41.75-31.75Q41.75-33.3 43.75-33.3L43.75-33.3 51.15-33.3Q52.75-33.3 53.57-32.58 54.4-31.85 55.35-30L55.35-30 62.65-15.35 66.1-27.4Q66.25-28.1 66.25-28.55L66.25-28.55Q66.25-29.2 66.02-29.63 65.8-30.05 65.4-30.5L65.4-30.5Q64.85-31.15 64.85-31.6L64.85-31.6Q64.85-31.9 64.9-32.05L64.9-32.05Q65.1-32.75 65.8-33.02 66.5-33.3 67.9-33.3L67.9-33.3 73.35-33.3ZM123.29-28.5Q123.29-26.7 122.52-25.4 121.74-24.1 120.54-23.43 119.34-22.75 118.14-22.75L118.14-22.75Q116.94-22.75 115.97-23.25 114.99-23.75 114.34-24.6L114.34-24.6 102.29-4.3Q100.94-2 99.79-1 98.64 0 97.19 0L97.19 0Q95.64 0 94.72-1.03 93.79-2.05 93.39-4.3L93.39-4.3 89.19-27.4Q89.04-28.3 88.64-28.85 88.24-29.4 87.59-30.05L87.59-30.05Q87.09-30.5 86.89-30.78 86.69-31.05 86.69-31.45L86.69-31.45Q86.44-33.3 88.89-33.3L88.89-33.3 101.39-33.3Q102.54-33.3 103.14-32.83 103.74-32.35 103.69-31.55L103.69-31.55Q103.69-31.1 103.52-30.8 103.34-30.5 102.94-30.05L102.94-30.05Q102.49-29.55 102.24-29.1 101.99-28.65 101.99-28L101.99-28Q101.99-27.7 102.04-27.5L102.04-27.5 103.94-15.85 110.59-27.65Q112.34-30.85 114.04-32.18 115.74-33.5 118.24-33.5L118.24-33.5Q120.54-33.5 121.92-32.18 123.29-30.85 123.29-28.5L123.29-28.5ZM147.94-26.55Q148.89-30 150.62-31.75 152.34-33.5 155.39-33.5L155.39-33.5Q157.79-33.5 159.24-31.98 160.69-30.45 160.69-28.2L160.69-28.2Q160.69-27.45 160.44-26.45L160.44-26.45Q159.89-24.25 158.49-23.28 157.09-22.3 155.44-22.3L155.44-22.3Q154.59-22.3 153.92-22.43 153.24-22.55 152.64-22.75L152.64-22.75 149.69-11.9Q148.09-5.95 144.34-2.83 140.59 0.3 134.14 0.3L134.14 0.3Q128.24 0.3 124.97-1.95 121.69-4.2 121.69-8.95L121.69-8.95Q121.69-11.25 122.49-14L122.49-14 126.29-27.45Q126.49-28.1 126.49-28.7L126.49-28.7Q126.49-29.3 126.32-29.68 126.14-30.05 125.84-30.55L125.84-30.55Q125.39-31.2 125.39-31.6L125.39-31.6Q125.39-31.8 125.49-32.1L125.49-32.1Q125.69-32.75 126.39-33.02 127.09-33.3 128.44-33.3L128.44-33.3 140.19-33.3Q142.34-33.3 142.34-32L142.34-32Q142.34-31.7 142.29-31.5L142.29-31.5Q142.14-31.05 141.87-30.78 141.59-30.5 141.04-30.15L141.04-30.15Q140.24-29.7 139.74-29.15 139.24-28.6 138.89-27.45L138.89-27.45 134.54-12.15Q134.09-10.45 134.09-9.25L134.09-9.25Q134.09-5.9 137.69-5.9L137.69-5.9Q139.89-5.9 141.37-7.33 142.84-8.75 143.84-12.2L143.84-12.2 147.94-26.55ZM181.14-34.05Q187.44-34.05 190.99-31.08 194.54-28.1 194.54-22.5L194.54-22.5Q194.54-19.85 193.74-16.8L193.74-16.8Q192.24-11.2 189.09-7.3 185.94-3.4 181.59-1.4 177.24 0.6 172.14 0.6L172.14 0.6Q165.89 0.6 162.34-2.38 158.79-5.35 158.79-10.95L158.79-10.95Q158.79-13.5 159.64-16.8L159.64-16.8Q161.09-22.35 164.21-26.23 167.34-30.1 171.66-32.08 175.99-34.05 181.14-34.05L181.14-34.05ZM180.24-29.15Q178.74-29.15 177.54-27.95 176.34-26.75 175.16-24.03 173.99-21.3 172.64-16.45L172.64-16.45Q170.64-9.45 170.64-6.8L170.64-6.8Q170.64-5.25 171.19-4.55 171.74-3.85 172.94-3.85L172.94-3.85Q174.44-3.85 175.64-5.08 176.84-6.3 177.99-9 179.14-11.7 180.54-16.45L180.54-16.45Q182.49-23.35 182.49-26.15L182.49-26.15Q182.49-27.75 181.94-28.45 181.39-29.15 180.24-29.15L180.24-29.15ZM230.39-33.3Q232.44-33.3 232.44-32L232.44-32Q232.44-31.65 232.39-31.5L232.39-31.5Q232.24-31 231.94-30.73 231.64-30.45 231.09-30.1L231.09-30.1Q230.34-29.65 229.84-29.1 229.34-28.55 228.99-27.4L228.99-27.4 222.79-5.2Q221.94-2.2 220.66-1 219.39 0.2 217.14 0.2L217.14 0.2Q215.14 0.2 213.81-0.98 212.49-2.15 211.34-4.6L211.34-4.6 203.79-20.5 199.59-5.9Q199.44-5.25 199.44-4.75L199.44-4.75Q199.44-4.1 199.66-3.68 199.89-3.25 200.29-2.8L200.29-2.8Q200.84-2.15 200.84-1.7L200.84-1.7Q200.84-1.4 200.79-1.25L200.79-1.25Q200.59-0.55 199.89-0.28 199.19 0 197.79 0L197.79 0 192.34 0Q190.29 0 190.29-1.3L190.29-1.3Q190.29-1.65 190.34-1.8L190.34-1.8Q190.49-2.3 190.79-2.58 191.09-2.85 191.64-3.2L191.64-3.2Q192.39-3.65 192.89-4.2 193.39-4.75 193.74-5.9L193.74-5.9 200.09-28.35 199.29-30Q198.79-31 198.79-31.75L198.79-31.75Q198.79-33.3 200.79-33.3L200.79-33.3 208.19-33.3Q209.79-33.3 210.61-32.58 211.44-31.85 212.39-30L212.39-30 219.69-15.35 223.14-27.4Q223.29-28.1 223.29-28.55L223.29-28.55Q223.29-29.2 223.06-29.63 222.84-30.05 222.44-30.5L222.44-30.5Q221.89-31.15 221.89-31.6L221.89-31.6Q221.89-31.9 221.94-32.05L221.94-32.05Q222.14-32.75 222.84-33.02 223.54-33.3 224.94-33.3L224.94-33.3 230.39-33.3ZM242.58 0.3Q239.23 0.3 236.51-1.18 233.78-2.65 232.18-5.53 230.58-8.4 230.58-12.4L230.58-12.4Q230.58-15.45 231.63-19.2L231.63-19.2Q233.93-27.2 238.86-30.5 243.78-33.8 249.38-33.8L249.38-33.8Q254.48-33.8 258.58-30.1L258.58-30.1 260.08-31.55Q261.33-32.6 262.23-33 263.13-33.4 264.33-33.4L264.33-33.4Q265.63-33.4 266.43-32.77 267.23-32.15 267.23-31.1L267.23-31.1Q267.23-30.7 267.08-30.15L267.08-30.15 265.28-23.85Q264.78-22.25 264.11-21.6 263.43-20.95 262.28-20.95L262.28-20.95Q261.08-20.95 260.16-21.55 259.23-22.15 258.03-23.7L258.03-23.7Q256.43-25.8 255.21-26.68 253.98-27.55 252.53-27.55L252.53-27.55Q250.28-27.55 248.26-25.28 246.23-23 244.73-17.7L244.73-17.7Q243.78-14.25 243.78-11.75L243.78-11.75Q243.78-9.1 244.81-7.73 245.83-6.35 247.68-6.35L247.68-6.35Q249.28-6.35 250.16-7.1 251.03-7.85 251.53-9.7L251.53-9.7 251.88-10.95Q252.13-11.95 252.13-12.3L252.13-12.3Q252.13-12.9 251.86-13.15 251.58-13.4 250.93-13.7L250.93-13.7 249.18-14.35Q248.03-14.8 248.03-16L248.03-16Q248.03-16.35 248.08-16.55L248.08-16.55Q248.28-17.2 248.81-17.5 249.33-17.8 250.43-17.8L250.43-17.8 265.53-17.75Q267.18-17.75 267.18-16.7L267.18-16.7Q267.18-16.5 267.08-16.1L267.08-16.1Q266.88-15.35 266.43-14.9 265.98-14.45 265.13-14L265.13-14 263.83-13.25Q263.33-12.95 263.08-12.68 262.83-12.4 262.73-12L262.73-12 260.08-2.75Q259.58-1.1 258.96-0.55 258.33 0 257.43 0L257.43 0 255.33 0Q254.13 0 253.36-0.5 252.58-1 252.08-2.45L252.08-2.45 251.58-3.9Q247.98 0.3 242.58 0.3L242.58 0.3Z" opacity="1" transform="matrix(1,0,0,1,0,0)" fill="#636365" class="wordmark-text-0" data-fill-palette-color="quaternary" id="text-0"></path></svg></g></svg></g></svg></g></svg></g><g></g></svg></g><defs></defs></svg><rect width="395.52" height="89.00059595494491" fill="none" stroke="none" visibility="hidden"></rect></g></svg></g></svg>